name rise30.2954peak35.7071fall66.7804.mot
datacolumns 19
datarows 36
range 15.22995000000000 15.28828200000000
endheader
time	ground_force1_vx	ground_force1_vy	ground_force1_vz	ground_force1_px	ground_force1_py	ground_force1_pz	ground_force2_vx	ground_force2_vy	ground_force2_vz	ground_force2_px	ground_force2_py	ground_force2_pz	ground_torque1_x	ground_torque1_y	ground_torque1_z	ground_torque2_x	ground_torque2_y	ground_torque2_z	
15.22995000000000	45.66010900000000	753.79507699999999	58.95174500000000	0.24555700000000	0.00000000000000	0.14175000000000	0.00000000000000	0.00000000000000	0.00000000000000	0.00000000000000	0.00000000000000	0.00000000000000	0.00000000000000	15.78250900000000	0.00000000000000	0.00000000000000	0.00000000000000	0.00000000000000	
15.23161000000000	44.87666000000000	755.83459800000003	58.99747700000000	0.24456100000000	0.00000000000000	0.14176600000000	0.00000000000000	0.00000000000000	0.00000000000000	0.00000000000000	0.00000000000000	0.00000000000000	0.00000000000000	15.86388800000000	0.00000000000000	0.00000000000000	0.00000000000000	0.00000000000000	
15.23327900000000	44.10763500000000	757.76781800000003	59.04774700000000	0.24360200000000	0.00000000000000	0.14178200000000	0.00000000000000	0.00000000000000	0.00000000000000	0.00000000000000	0.00000000000000	0.00000000000000	0.00000000000000	15.94674200000000	0.00000000000000	0.00000000000000	0.00000000000000	0.00000000000000	
15.23494300000000	43.35338300000000	759.59341099999995	59.10256300000000	0.24268000000000	0.00000000000000	0.14180000000000	0.00000000000000	0.00000000000000	0.00000000000000	0.00000000000000	0.00000000000000	0.00000000000000	0.00000000000000	16.03098200000000	0.00000000000000	0.00000000000000	0.00000000000000	0.00000000000000	
15.23660800000000	42.61414900000000	761.31015000000002	59.16183800000000	0.24179100000000	0.00000000000000	0.14182000000000	0.00000000000000	0.00000000000000	0.00000000000000	0.00000000000000	0.00000000000000	0.00000000000000	0.00000000000000	16.11648200000000	0.00000000000000	0.00000000000000	0.00000000000000	0.00000000000000	
15.23827600000000	41.89007200000000	762.91691700000001	59.22539600000000	0.24093500000000	0.00000000000000	0.14184100000000	0.00000000000000	0.00000000000000	0.00000000000000	0.00000000000000	0.00000000000000	0.00000000000000	0.00000000000000	16.20309000000000	0.00000000000000	0.00000000000000	0.00000000000000	0.00000000000000	
15.23994700000000	41.18119700000000	764.41272000000004	59.29297100000000	0.24010800000000	0.00000000000000	0.14186400000000	0.00000000000000	0.00000000000000	0.00000000000000	0.00000000000000	0.00000000000000	0.00000000000000	0.00000000000000	16.29062000000000	0.00000000000000	0.00000000000000	0.00000000000000	0.00000000000000	
15.24161200000000	40.48747300000000	765.79670099999998	59.36421600000000	0.23931000000000	0.00000000000000	0.14188800000000	0.00000000000000	0.00000000000000	0.00000000000000	0.00000000000000	0.00000000000000	0.00000000000000	0.00000000000000	16.37886000000000	0.00000000000000	0.00000000000000	0.00000000000000	0.00000000000000	
15.24327800000000	39.80876700000000	767.06814799999995	59.43870800000000	0.23853700000000	0.00000000000000	0.14191500000000	0.00000000000000	0.00000000000000	0.00000000000000	0.00000000000000	0.00000000000000	0.00000000000000	0.00000000000000	16.46757400000000	0.00000000000000	0.00000000000000	0.00000000000000	0.00000000000000	
15.24494600000000	39.14486300000000	768.22650899999996	59.51595500000000	0.23778600000000	0.00000000000000	0.14194300000000	0.00000000000000	0.00000000000000	0.00000000000000	0.00000000000000	0.00000000000000	0.00000000000000	0.00000000000000	16.55650100000000	0.00000000000000	0.00000000000000	0.00000000000000	0.00000000000000	
15.24661300000000	38.49547200000000	769.27139399999999	59.59539900000000	0.23705700000000	0.00000000000000	0.14197400000000	0.00000000000000	0.00000000000000	0.00000000000000	0.00000000000000	0.00000000000000	0.00000000000000	0.00000000000000	16.64536000000000	0.00000000000000	0.00000000000000	0.00000000000000	0.00000000000000	
15.24827900000000	37.86023900000000	770.20258799999999	59.67642400000000	0.23634500000000	0.00000000000000	0.14200600000000	0.00000000000000	0.00000000000000	0.00000000000000	0.00000000000000	0.00000000000000	0.00000000000000	0.00000000000000	16.73385200000000	0.00000000000000	0.00000000000000	0.00000000000000	0.00000000000000	
15.24994200000000	37.23874700000000	771.02005899999995	59.75836600000000	0.23564800000000	0.00000000000000	0.14204000000000	0.00000000000000	0.00000000000000	0.00000000000000	0.00000000000000	0.00000000000000	0.00000000000000	0.00000000000000	16.82166200000000	0.00000000000000	0.00000000000000	0.00000000000000	0.00000000000000	
15.25161400000000	36.63052600000000	771.72395800000004	59.84051300000000	0.23496400000000	0.00000000000000	0.14207700000000	0.00000000000000	0.00000000000000	0.00000000000000	0.00000000000000	0.00000000000000	0.00000000000000	0.00000000000000	16.90846100000000	0.00000000000000	0.00000000000000	0.00000000000000	0.00000000000000	
15.25327500000000	36.03506100000000	772.31463099999996	59.92212000000000	0.23428900000000	0.00000000000000	0.14211600000000	0.00000000000000	0.00000000000000	0.00000000000000	0.00000000000000	0.00000000000000	0.00000000000000	0.00000000000000	16.99390900000000	0.00000000000000	0.00000000000000	0.00000000000000	0.00000000000000	
15.25494900000000	35.45179500000000	772.79261599999995	60.00241000000000	0.23362100000000	0.00000000000000	0.14215700000000	0.00000000000000	0.00000000000000	0.00000000000000	0.00000000000000	0.00000000000000	0.00000000000000	0.00000000000000	17.07765900000000	0.00000000000000	0.00000000000000	0.00000000000000	0.00000000000000	
15.25661300000000	34.88014200000000	773.15865199999996	60.08058500000000	0.23295800000000	0.00000000000000	0.14220000000000	0.00000000000000	0.00000000000000	0.00000000000000	0.00000000000000	0.00000000000000	0.00000000000000	0.00000000000000	17.15935900000000	0.00000000000000	0.00000000000000	0.00000000000000	0.00000000000000	
15.25828200000000	34.31948800000000	773.41367400000001	60.15583100000000	0.23229700000000	0.00000000000000	0.14224600000000	0.00000000000000	0.00000000000000	0.00000000000000	0.00000000000000	0.00000000000000	0.00000000000000	0.00000000000000	17.23865200000000	0.00000000000000	0.00000000000000	0.00000000000000	0.00000000000000	
15.25994100000000	33.76920100000000	773.55882099999997	60.22732500000000	0.23163400000000	0.00000000000000	0.14229400000000	0.00000000000000	0.00000000000000	0.00000000000000	0.00000000000000	0.00000000000000	0.00000000000000	0.00000000000000	17.31518200000000	0.00000000000000	0.00000000000000	0.00000000000000	0.00000000000000	
15.26161100000000	33.22864000000000	773.59542599999997	60.29424600000000	0.23096700000000	0.00000000000000	0.14234400000000	0.00000000000000	0.00000000000000	0.00000000000000	0.00000000000000	0.00000000000000	0.00000000000000	0.00000000000000	17.38859800000000	0.00000000000000	0.00000000000000	0.00000000000000	0.00000000000000	
15.26327500000000	32.69715500000000	773.52502300000003	60.35577400000000	0.23029500000000	0.00000000000000	0.14239700000000	0.00000000000000	0.00000000000000	0.00000000000000	0.00000000000000	0.00000000000000	0.00000000000000	0.00000000000000	17.45855100000000	0.00000000000000	0.00000000000000	0.00000000000000	0.00000000000000	
15.26494500000000	32.17410000000000	773.34933799999999	60.41110600000000	0.22961400000000	0.00000000000000	0.14245200000000	0.00000000000000	0.00000000000000	0.00000000000000	0.00000000000000	0.00000000000000	0.00000000000000	0.00000000000000	17.52470100000000	0.00000000000000	0.00000000000000	0.00000000000000	0.00000000000000	
15.26661300000000	31.65883500000000	773.07029199999999	60.45945500000000	0.22892300000000	0.00000000000000	0.14250900000000	0.00000000000000	0.00000000000000	0.00000000000000	0.00000000000000	0.00000000000000	0.00000000000000	0.00000000000000	17.58671900000000	0.00000000000000	0.00000000000000	0.00000000000000	0.00000000000000	
15.26828200000000	31.15073300000000	772.68998799999997	60.50006000000000	0.22821800000000	0.00000000000000	0.14256900000000	0.00000000000000	0.00000000000000	0.00000000000000	0.00000000000000	0.00000000000000	0.00000000000000	0.00000000000000	17.64429100000000	0.00000000000000	0.00000000000000	0.00000000000000	0.00000000000000	
15.26994600000000	30.64918600000000	772.21071400000005	60.53219200000000	0.22749800000000	0.00000000000000	0.14263100000000	0.00000000000000	0.00000000000000	0.00000000000000	0.00000000000000	0.00000000000000	0.00000000000000	0.00000000000000	17.69711400000000	0.00000000000000	0.00000000000000	0.00000000000000	0.00000000000000	
15.27161400000000	30.15360900000000	771.63493000000005	60.55515600000000	0.22676200000000	0.00000000000000	0.14269600000000	0.00000000000000	0.00000000000000	0.00000000000000	0.00000000000000	0.00000000000000	0.00000000000000	0.00000000000000	17.74490500000000	0.00000000000000	0.00000000000000	0.00000000000000	0.00000000000000	
15.27328000000000	29.66344500000000	770.96526500000004	60.56830000000000	0.22600600000000	0.00000000000000	0.14276200000000	0.00000000000000	0.00000000000000	0.00000000000000	0.00000000000000	0.00000000000000	0.00000000000000	0.00000000000000	17.78740300000000	0.00000000000000	0.00000000000000	0.00000000000000	0.00000000000000	
15.27494900000000	29.17817000000000	770.20451100000002	60.57101900000000	0.22523100000000	0.00000000000000	0.14283100000000	0.00000000000000	0.00000000000000	0.00000000000000	0.00000000000000	0.00000000000000	0.00000000000000	0.00000000000000	17.82436400000000	0.00000000000000	0.00000000000000	0.00000000000000	0.00000000000000	
15.27661000000000	28.69729700000000	769.35560899999996	60.56275600000000	0.22443300000000	0.00000000000000	0.14290200000000	0.00000000000000	0.00000000000000	0.00000000000000	0.00000000000000	0.00000000000000	0.00000000000000	0.00000000000000	17.85557100000000	0.00000000000000	0.00000000000000	0.00000000000000	0.00000000000000	
15.27828200000000	28.22037800000000	768.42164500000001	60.54301100000000	0.22361300000000	0.00000000000000	0.14297600000000	0.00000000000000	0.00000000000000	0.00000000000000	0.00000000000000	0.00000000000000	0.00000000000000	0.00000000000000	17.88083000000000	0.00000000000000	0.00000000000000	0.00000000000000	0.00000000000000	
15.27994200000000	27.74700800000000	767.40583900000001	60.51134200000000	0.22276900000000	0.00000000000000	0.14305100000000	0.00000000000000	0.00000000000000	0.00000000000000	0.00000000000000	0.00000000000000	0.00000000000000	0.00000000000000	17.89997600000000	0.00000000000000	0.00000000000000	0.00000000000000	0.00000000000000	
15.28161700000000	27.27682700000000	766.31153700000004	60.46736500000000	0.22190000000000	0.00000000000000	0.14312800000000	0.00000000000000	0.00000000000000	0.00000000000000	0.00000000000000	0.00000000000000	0.00000000000000	0.00000000000000	17.91286700000000	0.00000000000000	0.00000000000000	0.00000000000000	0.00000000000000	
15.28328300000000	26.80952200000000	765.14220000000000	60.41076300000000	0.22100600000000	0.00000000000000	0.14320700000000	0.00000000000000	0.00000000000000	0.00000000000000	0.00000000000000	0.00000000000000	0.00000000000000	0.00000000000000	17.91939400000000	0.00000000000000	0.00000000000000	0.00000000000000	0.00000000000000	
15.28494400000000	26.34483200000000	763.90139099999999	60.34128100000000	0.22008500000000	0.00000000000000	0.14328800000000	0.00000000000000	0.00000000000000	0.00000000000000	0.00000000000000	0.00000000000000	0.00000000000000	0.00000000000000	17.91947400000000	0.00000000000000	0.00000000000000	0.00000000000000	0.00000000000000	
15.28661400000000	25.88254400000000	762.59276999999997	60.25873400000000	0.21913900000000	0.00000000000000	0.14337100000000	0.00000000000000	0.00000000000000	0.00000000000000	0.00000000000000	0.00000000000000	0.00000000000000	0.00000000000000	17.91305500000000	0.00000000000000	0.00000000000000	0.00000000000000	0.00000000000000	
15.28828200000000	25.42249500000000	761.22007900000006	60.16300300000000	0.21816600000000	0.00000000000000	0.14345500000000	0.00000000000000	0.00000000000000	0.00000000000000	0.00000000000000	0.00000000000000	0.00000000000000	0.00000000000000	17.90011300000000	0.00000000000000	0.00000000000000	0.00000000000000	0.00000000000000	
